<?xml version="1.0" encoding="utf-8"?>
<!-- Generator: Adobe Illustrator 18.0.0, SVG Export Plug-In . SVG Version: 6.00 Build 0)  -->
<!DOCTYPE svg PUBLIC "-//W3C//DTD SVG 1.1//EN" "http://www.w3.org/Graphics/SVG/1.1/DTD/svg11.dtd">
<svg version="1.1" id="Layer_1" xmlns="http://www.w3.org/2000/svg" xmlns:xlink="http://www.w3.org/1999/xlink" x="0px" y="0px"
	 viewBox="0 0 129.6 129.6" enable-background="new 0 0 129.6 129.6" xml:space="preserve">
<g>
	<defs>
		<rect id="SVGID_1_" y="0" width="129.6" height="129.6"/>
	</defs>
	<clipPath id="SVGID_2_">
		<use xlink:href="#SVGID_1_"  overflow="visible"/>
	</clipPath>
	<g clip-path="url(#SVGID_2_)">
		<path fill="#191718" d="M54.3,6.8l0-6h6L54.3,6.8z M52.6-0.9h-4.3v-12l4.3,4.3L52.6-0.9z M52.6,8.6l-4.3,4.3v-12h4.3L52.6,8.6z
			 M46.5-2.1l-5.4-5.4l5.4-5.4V-2.1z M46.5,12.9l-5.4-5.4l5.4-5.4V12.9z M41,20.2h-7.7v-4.3h12L41,20.2z M33.3,27.9v-6h6L33.3,27.9z
			 M39.9,8.7l5.4,5.4H34.5L39.9,8.7z M18.6,0l13.8-13.8L46.2,0L32.4,13.8L18.6,0z M31.5,20.2h-7.7l-4.3-4.3h12V20.2z M31.5,27.9
			l-6-6h6V27.9z M24.9,8.7l5.4,5.4H19.5L24.9,8.7z M18.3,2.1l5.4,5.4l-5.4,5.4V2.1z M16.5-0.9h-4.3v-7.7l4.3-4.3V-0.9z M16.5,12.9
			l-4.3-4.3V0.9h4.3V12.9z M10.5-0.9h-6l6-6V-0.9z M10.5,6.8l-6-6h6V6.8z M18.3-12.9l5.4,5.4l-5.4,5.4V-12.9z M30.3-14.1l-5.4,5.4
			l-5.4-5.4H30.3z M23.8-20.2h7.7v4.3h-12L23.8-20.2z M31.5-27.9v6h-6L31.5-27.9z M45.3-14.1l-5.4,5.4l-5.4-5.4H45.3z M33.3-20.2H41
			l4.3,4.3h-12V-20.2z M33.3-27.9l6,6h-6V-27.9z M54.3-6.8l6,6h-6L54.3-6.8z M32.4-31.2L1.2,0l31.2,31.2L63.6,0L32.4-31.2z"/>
		<path fill="#191718" d="M119.1,6.8l0-6h6L119.1,6.8z M117.4-0.9h-4.3v-12l4.3,4.3L117.4-0.9z M117.4,8.6l-4.3,4.3v-12h4.3
			L117.4,8.6z M111.3-2.1l-5.4-5.4l5.4-5.4V-2.1z M111.3,12.9l-5.4-5.4l5.4-5.4V12.9z M105.8,20.2h-7.7v-4.3h12L105.8,20.2z
			 M98.1,27.9v-6h6L98.1,27.9z M104.7,8.7l5.4,5.4H99.3L104.7,8.7z M83.4,0l13.8-13.8L111,0L97.2,13.8L83.4,0z M96.3,20.2h-7.7
			l-4.3-4.3h12V20.2z M96.3,27.9l-6-6h6V27.9z M89.7,8.7l5.4,5.4H84.3L89.7,8.7z M83.1,2.1l5.4,5.4l-5.4,5.4V2.1z M81.3-0.9H77v-7.7
			l4.3-4.3V-0.9z M81.3,12.9L77,8.6V0.9h4.3V12.9z M75.3-0.9h-6l6-6V-0.9z M75.3,6.8l-6-6h6V6.8z M83.1-12.9l5.4,5.4l-5.4,5.4V-12.9
			z M95.1-14.1l-5.4,5.4l-5.4-5.4H95.1z M88.6-20.2h7.7v4.3h-12L88.6-20.2z M96.3-27.9v6h-6L96.3-27.9z M110.1-14.1l-5.4,5.4
			l-5.4-5.4H110.1z M98.1-20.2h7.7l4.3,4.3h-12V-20.2z M98.1-27.9l6,6h-6V-27.9z M119.1-6.8l6,6h-6L119.1-6.8z M97.2-31.2L66,0
			l31.2,31.2L128.4,0L97.2-31.2z"/>
		<path fill="#191718" d="M54.3,71.6l0-6h6L54.3,71.6z M52.6,63.9h-4.3v-12l4.3,4.3L52.6,63.9z M52.6,73.4l-4.3,4.3v-12h4.3
			L52.6,73.4z M46.5,62.7l-5.4-5.4l5.4-5.4V62.7z M46.5,77.7l-5.4-5.4l5.4-5.4V77.7z M41,85h-7.7v-4.3h12L41,85z M33.3,92.7v-6h6
			L33.3,92.7z M39.9,73.5l5.4,5.4H34.5L39.9,73.5z M18.6,64.8L32.4,51l13.8,13.8L32.4,78.6L18.6,64.8z M31.5,85h-7.7l-4.3-4.3h12V85
			z M31.5,92.7l-6-6h6V92.7z M24.9,73.5l5.4,5.4H19.5L24.9,73.5z M18.3,66.9l5.4,5.4l-5.4,5.4V66.9z M16.5,63.9h-4.3v-7.7l4.3-4.3
			V63.9z M16.5,77.7l-4.3-4.3v-7.7h4.3V77.7z M10.5,63.9h-6l6-6V63.9z M10.5,71.6l-6-6h6V71.6z M18.3,51.9l5.4,5.4l-5.4,5.4V51.9z
			 M30.3,50.7l-5.4,5.4l-5.4-5.4H30.3z M23.8,44.6h7.7v4.3h-12L23.8,44.6z M31.5,36.9v6h-6L31.5,36.9z M45.3,50.7l-5.4,5.4l-5.4-5.4
			H45.3z M33.3,44.6H41l4.3,4.3h-12V44.6z M33.3,36.9l6,6h-6V36.9z M54.3,58l6,6h-6L54.3,58z M32.4,33.6L1.2,64.8L32.4,96l31.2-31.2
			L32.4,33.6z"/>
		<path fill="#191718" d="M119.1,71.6l0-6h6L119.1,71.6z M117.4,63.9h-4.3v-12l4.3,4.3L117.4,63.9z M117.4,73.4l-4.3,4.3v-12h4.3
			L117.4,73.4z M111.3,62.7l-5.4-5.4l5.4-5.4V62.7z M111.3,77.7l-5.4-5.4l5.4-5.4V77.7z M105.8,85h-7.7v-4.3h12L105.8,85z
			 M98.1,92.7v-6h6L98.1,92.7z M104.7,73.5l5.4,5.4H99.3L104.7,73.5z M83.4,64.8L97.2,51L111,64.8L97.2,78.6L83.4,64.8z M96.3,85
			h-7.7l-4.3-4.3h12V85z M96.3,92.7l-6-6h6V92.7z M89.7,73.5l5.4,5.4H84.3L89.7,73.5z M83.1,66.9l5.4,5.4l-5.4,5.4V66.9z M81.3,63.9
			H77v-7.7l4.3-4.3V63.9z M81.3,77.7L77,73.4v-7.7h4.3V77.7z M75.3,63.9h-6l6-6V63.9z M75.3,71.6l-6-6h6V71.6z M83.1,51.9l5.4,5.4
			l-5.4,5.4V51.9z M95.1,50.7l-5.4,5.4l-5.4-5.4H95.1z M88.6,44.6h7.7v4.3h-12L88.6,44.6z M96.3,36.9v6h-6L96.3,36.9z M110.1,50.7
			l-5.4,5.4l-5.4-5.4H110.1z M98.1,44.6h7.7l4.3,4.3h-12V44.6z M98.1,36.9l6,6h-6V36.9z M119.1,58l6,6h-6L119.1,58z M97.2,33.6
			L66,64.8L97.2,96l31.2-31.2L97.2,33.6z"/>
		<path fill="#191718" d="M54.3,136.4l0-6h6L54.3,136.4z M52.6,128.7h-4.3v-12l4.3,4.3L52.6,128.7z M52.6,138.2l-4.3,4.3v-12h4.3
			L52.6,138.2z M46.5,127.5l-5.4-5.4l5.4-5.4V127.5z M46.5,142.5l-5.4-5.4l5.4-5.4V142.5z M41,149.8h-7.7v-4.3h12L41,149.8z
			 M33.3,157.5v-6h6L33.3,157.5z M39.9,138.3l5.4,5.4H34.5L39.9,138.3z M18.6,129.6l13.8-13.8l13.8,13.8l-13.8,13.8L18.6,129.6z
			 M31.5,149.8h-7.7l-4.3-4.3h12V149.8z M31.5,157.5l-6-6h6V157.5z M24.9,138.3l5.4,5.4H19.5L24.9,138.3z M18.3,131.7l5.4,5.4
			l-5.4,5.4V131.7z M16.5,128.7h-4.3V121l4.3-4.3V128.7z M16.5,142.5l-4.3-4.3v-7.7h4.3V142.5z M10.5,128.7h-6l6-6V128.7z
			 M10.5,136.4l-6-6h6V136.4z M18.3,116.7l5.4,5.4l-5.4,5.4V116.7z M30.3,115.5l-5.4,5.4l-5.4-5.4H30.3z M23.8,109.4h7.7v4.3h-12
			L23.8,109.4z M31.5,101.7v6h-6L31.5,101.7z M45.3,115.5l-5.4,5.4l-5.4-5.4H45.3z M33.3,109.4H41l4.3,4.3h-12V109.4z M33.3,101.7
			l6,6h-6V101.7z M54.3,122.8l6,6h-6L54.3,122.8z M32.4,98.4L1.2,129.6l31.2,31.2l31.2-31.2L32.4,98.4z"/>
		<path fill="#191718" d="M119.1,136.4l0-6h6L119.1,136.4z M117.4,128.7h-4.3v-12l4.3,4.3L117.4,128.7z M117.4,138.2l-4.3,4.3v-12
			h4.3L117.4,138.2z M111.3,127.5l-5.4-5.4l5.4-5.4V127.5z M111.3,142.5l-5.4-5.4l5.4-5.4V142.5z M105.8,149.8h-7.7v-4.3h12
			L105.8,149.8z M98.1,157.5v-6h6L98.1,157.5z M104.7,138.3l5.4,5.4H99.3L104.7,138.3z M83.4,129.6l13.8-13.8l13.8,13.8l-13.8,13.8
			L83.4,129.6z M96.3,149.8h-7.7l-4.3-4.3h12V149.8z M96.3,157.5l-6-6h6V157.5z M89.7,138.3l5.4,5.4H84.3L89.7,138.3z M83.1,131.7
			l5.4,5.4l-5.4,5.4V131.7z M81.3,128.7H77V121l4.3-4.3V128.7z M81.3,142.5l-4.3-4.3v-7.7h4.3V142.5z M75.3,128.7h-6l6-6V128.7z
			 M75.3,136.4l-6-6h6V136.4z M83.1,116.7l5.4,5.4l-5.4,5.4V116.7z M95.1,115.5l-5.4,5.4l-5.4-5.4H95.1z M88.6,109.4h7.7v4.3h-12
			L88.6,109.4z M96.3,101.7v6h-6L96.3,101.7z M110.1,115.5l-5.4,5.4l-5.4-5.4H110.1z M98.1,109.4h7.7l4.3,4.3h-12V109.4z
			 M98.1,101.7l6,6h-6V101.7z M119.1,122.8l6,6h-6L119.1,122.8z M97.2,98.4L66,129.6l31.2,31.2l31.2-31.2L97.2,98.4z"/>
		<path fill="#191718" d="M21.9,39.2l0-6h6L21.9,39.2z M20.2,31.5h-4.3v-12l4.3,4.3L20.2,31.5z M20.2,41l-4.3,4.3v-12h4.3L20.2,41z
			 M14.1,30.3l-5.4-5.4l5.4-5.4V30.3z M14.1,45.3l-5.4-5.4l5.4-5.4V45.3z M8.6,52.6H0.9v-4.3h12L8.6,52.6z M0.9,60.3v-6h6L0.9,60.3z
			 M7.5,41.1l5.4,5.4H2.1L7.5,41.1z M-13.8,32.4L0,18.6l13.8,13.8L0,46.2L-13.8,32.4z M-0.9,52.6h-7.7l-4.3-4.3h12V52.6z M-0.9,60.3
			l-6-6h6V60.3z M-7.5,41.1l5.4,5.4h-10.8L-7.5,41.1z M-14.1,34.5l5.4,5.4l-5.4,5.4V34.5z M-15.9,31.5h-4.3v-7.7l4.3-4.3V31.5z
			 M-15.9,45.3l-4.3-4.3v-7.7h4.3V45.3z M-21.9,31.5h-6l6-6V31.5z M-21.9,39.2l-6-6h6V39.2z M-14.1,19.5l5.4,5.4l-5.4,5.4V19.5z
			 M-2.1,18.3l-5.4,5.4l-5.4-5.4H-2.1z M-8.6,12.2h7.7v4.3h-12L-8.6,12.2z M-0.9,4.5v6h-6L-0.9,4.5z M12.9,18.3l-5.4,5.4l-5.4-5.4
			H12.9z M0.9,12.2h7.7l4.3,4.3h-12V12.2z M0.9,4.5l6,6h-6V4.5z M21.9,25.6l6,6h-6L21.9,25.6z M0,1.2l-31.2,31.2L0,63.6l31.2-31.2
			L0,1.2z"/>
		<path fill="#191718" d="M86.7,39.2l0-6h6L86.7,39.2z M85,31.5h-4.3v-12l4.3,4.3L85,31.5z M85,41l-4.3,4.3v-12H85L85,41z
			 M78.9,30.3l-5.4-5.4l5.4-5.4V30.3z M78.9,45.3l-5.4-5.4l5.4-5.4V45.3z M73.4,52.6h-7.7v-4.3h12L73.4,52.6z M65.7,60.3v-6h6
			L65.7,60.3z M72.3,41.1l5.4,5.4H66.9L72.3,41.1z M51,32.4l13.8-13.8l13.8,13.8L64.8,46.2L51,32.4z M63.9,52.6h-7.7l-4.3-4.3h12
			V52.6z M63.9,60.3l-6-6h6V60.3z M57.3,41.1l5.4,5.4H51.9L57.3,41.1z M50.7,34.5l5.4,5.4l-5.4,5.4V34.5z M48.9,31.5h-4.3v-7.7
			l4.3-4.3V31.5z M48.9,45.3L44.6,41v-7.7h4.3V45.3z M42.9,31.5h-6l6-6V31.5z M42.9,39.2l-6-6h6V39.2z M50.7,19.5l5.4,5.4l-5.4,5.4
			V19.5z M62.7,18.3l-5.4,5.4l-5.4-5.4H62.7z M56.2,12.2h7.7v4.3h-12L56.2,12.2z M63.9,4.5v6h-6L63.9,4.5z M77.7,18.3l-5.4,5.4
			l-5.4-5.4H77.7z M65.7,12.2h7.7l4.3,4.3h-12V12.2z M65.7,4.5l6,6h-6V4.5z M86.7,25.6l6,6h-6L86.7,25.6z M64.8,1.2L33.6,32.4
			l31.2,31.2L96,32.4L64.8,1.2z"/>
		<path fill="#191718" d="M151.5,39.2l0-6h6L151.5,39.2z M149.8,31.5h-4.3v-12l4.3,4.3L149.8,31.5z M149.8,41l-4.3,4.3v-12h4.3
			L149.8,41z M143.7,30.3l-5.4-5.4l5.4-5.4V30.3z M143.7,45.3l-5.4-5.4l5.4-5.4V45.3z M138.2,52.6h-7.7v-4.3h12L138.2,52.6z
			 M130.5,60.3v-6h6L130.5,60.3z M137.1,41.1l5.4,5.4h-10.8L137.1,41.1z M115.8,32.4l13.8-13.8l13.8,13.8l-13.8,13.8L115.8,32.4z
			 M128.7,52.6H121l-4.3-4.3h12V52.6z M128.7,60.3l-6-6h6V60.3z M122.1,41.1l5.4,5.4h-10.8L122.1,41.1z M115.5,34.5l5.4,5.4
			l-5.4,5.4V34.5z M113.7,31.5h-4.3v-7.7l4.3-4.3V31.5z M113.7,45.3l-4.3-4.3v-7.7h4.3V45.3z M107.7,31.5h-6l6-6V31.5z M107.7,39.2
			l-6-6h6V39.2z M115.5,19.5l5.4,5.4l-5.4,5.4V19.5z M127.5,18.3l-5.4,5.4l-5.4-5.4H127.5z M121,12.2h7.7v4.3h-12L121,12.2z
			 M128.7,4.5v6h-6L128.7,4.5z M142.5,18.3l-5.4,5.4l-5.4-5.4H142.5z M130.5,12.2h7.7l4.3,4.3h-12V12.2z M130.5,4.5l6,6h-6V4.5z
			 M151.5,25.6l6,6h-6L151.5,25.6z M129.6,1.2L98.4,32.4l31.2,31.2l31.2-31.2L129.6,1.2z"/>
		<path fill="#191718" d="M21.9,104l0-6h6L21.9,104z M20.2,96.3h-4.3v-12l4.3,4.3L20.2,96.3z M20.2,105.8l-4.3,4.3v-12h4.3
			L20.2,105.8z M14.1,95.1l-5.4-5.4l5.4-5.4V95.1z M14.1,110.1l-5.4-5.4l5.4-5.4V110.1z M8.6,117.4H0.9v-4.3h12L8.6,117.4z
			 M0.9,125.1v-6h6L0.9,125.1z M7.5,105.9l5.4,5.4H2.1L7.5,105.9z M-13.8,97.2L0,83.4l13.8,13.8L0,111L-13.8,97.2z M-0.9,117.4h-7.7
			l-4.3-4.3h12V117.4z M-0.9,125.1l-6-6h6V125.1z M-7.5,105.9l5.4,5.4h-10.8L-7.5,105.9z M-14.1,99.3l5.4,5.4l-5.4,5.4V99.3z
			 M-15.9,96.3h-4.3v-7.7l4.3-4.3V96.3z M-15.9,110.1l-4.3-4.3v-7.7h4.3V110.1z M-21.9,96.3h-6l6-6V96.3z M-21.9,104l-6-6h6V104z
			 M-14.1,84.3l5.4,5.4l-5.4,5.4V84.3z M-2.1,83.1l-5.4,5.4l-5.4-5.4H-2.1z M-8.6,77h7.7v4.3h-12L-8.6,77z M-0.9,69.3v6h-6
			L-0.9,69.3z M12.9,83.1l-5.4,5.4l-5.4-5.4H12.9z M0.9,77h7.7l4.3,4.3h-12V77z M0.9,69.3l6,6h-6V69.3z M21.9,90.4l6,6h-6L21.9,90.4
			z M0,66l-31.2,31.2L0,128.4l31.2-31.2L0,66z"/>
		<path fill="#191718" d="M86.7,104l0-6h6L86.7,104z M85,96.3h-4.3v-12l4.3,4.3L85,96.3z M85,105.8l-4.3,4.3v-12H85L85,105.8z
			 M78.9,95.1l-5.4-5.4l5.4-5.4V95.1z M78.9,110.1l-5.4-5.4l5.4-5.4V110.1z M73.4,117.4h-7.7v-4.3h12L73.4,117.4z M65.7,125.1v-6h6
			L65.7,125.1z M72.3,105.9l5.4,5.4H66.9L72.3,105.9z M51,97.2l13.8-13.8l13.8,13.8L64.8,111L51,97.2z M63.9,117.4h-7.7l-4.3-4.3h12
			V117.4z M63.9,125.1l-6-6h6V125.1z M57.3,105.9l5.4,5.4H51.9L57.3,105.9z M50.7,99.3l5.4,5.4l-5.4,5.4V99.3z M48.9,96.3h-4.3v-7.7
			l4.3-4.3V96.3z M48.9,110.1l-4.3-4.3v-7.7h4.3V110.1z M42.9,96.3h-6l6-6V96.3z M42.9,104l-6-6h6V104z M50.7,84.3l5.4,5.4l-5.4,5.4
			V84.3z M62.7,83.1l-5.4,5.4l-5.4-5.4H62.7z M56.2,77h7.7v4.3h-12L56.2,77z M63.9,69.3v6h-6L63.9,69.3z M77.7,83.1l-5.4,5.4
			l-5.4-5.4H77.7z M65.7,77h7.7l4.3,4.3h-12V77z M65.7,69.3l6,6h-6V69.3z M86.7,90.4l6,6h-6L86.7,90.4z M64.8,66L33.6,97.2
			l31.2,31.2L96,97.2L64.8,66z"/>
		<path fill="#191718" d="M151.5,104l0-6h6L151.5,104z M149.8,96.3h-4.3v-12l4.3,4.3L149.8,96.3z M149.8,105.8l-4.3,4.3v-12h4.3
			L149.8,105.8z M143.7,95.1l-5.4-5.4l5.4-5.4V95.1z M143.7,110.1l-5.4-5.4l5.4-5.4V110.1z M138.2,117.4h-7.7v-4.3h12L138.2,117.4z
			 M130.5,125.1v-6h6L130.5,125.1z M137.1,105.9l5.4,5.4h-10.8L137.1,105.9z M115.8,97.2l13.8-13.8l13.8,13.8L129.6,111L115.8,97.2z
			 M128.7,117.4H121l-4.3-4.3h12V117.4z M128.7,125.1l-6-6h6V125.1z M122.1,105.9l5.4,5.4h-10.8L122.1,105.9z M115.5,99.3l5.4,5.4
			l-5.4,5.4V99.3z M113.7,96.3h-4.3v-7.7l4.3-4.3V96.3z M113.7,110.1l-4.3-4.3v-7.7h4.3V110.1z M107.7,96.3h-6l6-6V96.3z M107.7,104
			l-6-6h6V104z M115.5,84.3l5.4,5.4l-5.4,5.4V84.3z M127.5,83.1l-5.4,5.4l-5.4-5.4H127.5z M121,77h7.7v4.3h-12L121,77z M128.7,69.3
			v6h-6L128.7,69.3z M142.5,83.1l-5.4,5.4l-5.4-5.4H142.5z M130.5,77h7.7l4.3,4.3h-12V77z M130.5,69.3l6,6h-6V69.3z M151.5,90.4l6,6
			h-6L151.5,90.4z M129.6,66L98.4,97.2l31.2,31.2l31.2-31.2L129.6,66z"/>
	</g>
</g>
</svg>
